<?xml version="1.0" encoding="utf-8" standalone="no"?>
<!DOCTYPE svg PUBLIC "-//W3C//DTD SVG 1.1//EN"
  "http://www.w3.org/Graphics/SVG/1.1/DTD/svg11.dtd">
<svg xmlns:xlink="http://www.w3.org/1999/xlink" width="453.430312pt" height="337.03625pt" viewBox="0 0 453.430312 337.03625" xmlns="http://www.w3.org/2000/svg" version="1.1">
 <metadata>
  <rdf:RDF xmlns:dc="http://purl.org/dc/elements/1.1/" xmlns:cc="http://creativecommons.org/ns#" xmlns:rdf="http://www.w3.org/1999/02/22-rdf-syntax-ns#">
   <cc:Work>
    <dc:type rdf:resource="http://purl.org/dc/dcmitype/StillImage"/>
    <dc:date>2025-05-21T13:18:38.464462</dc:date>
    <dc:format>image/svg+xml</dc:format>
    <dc:creator>
     <cc:Agent>
      <dc:title>Matplotlib v3.9.2, https://matplotlib.org/</dc:title>
     </cc:Agent>
    </dc:creator>
   </cc:Work>
  </rdf:RDF>
 </metadata>
 <defs>
  <style type="text/css">*{stroke-linejoin: round; stroke-linecap: butt}</style>
 </defs>
 <g id="figure_1">
  <g id="patch_1">
   <path d="M 0 337.03625 
L 453.430312 337.03625 
L 453.430312 0 
L 0 0 
z
" style="fill: #ffffff"/>
  </g>
  <g id="axes_1">
   <g id="patch_2">
    <path d="M 68.070312 84.303125 
L 446.230313 84.303125 
L 446.230313 22.318125 
L 68.070312 22.318125 
z
" style="fill: #ffffff"/>
   </g>
   <g id="matplotlib.axis_1">
    <g id="xtick_1">
     <g id="line2d_1">
      <defs>
       <path id="mc2a4c0de12" d="M 0 0 
L 0 3.5 
" style="stroke: #000000; stroke-width: 0.8"/>
      </defs>
      <g>
       <use xlink:href="#mc2a4c0de12" x="68.070312" y="84.303125" style="stroke: #000000; stroke-width: 0.8"/>
      </g>
     </g>
    </g>
    <g id="xtick_2">
     <g id="line2d_2">
      <g>
       <use xlink:href="#mc2a4c0de12" x="135.78108" y="84.303125" style="stroke: #000000; stroke-width: 0.8"/>
      </g>
     </g>
    </g>
    <g id="xtick_3">
     <g id="line2d_3">
      <g>
       <use xlink:href="#mc2a4c0de12" x="203.584602" y="84.303125" style="stroke: #000000; stroke-width: 0.8"/>
      </g>
     </g>
    </g>
    <g id="xtick_4">
     <g id="line2d_4">
      <g>
       <use xlink:href="#mc2a4c0de12" x="271.29537" y="84.303125" style="stroke: #000000; stroke-width: 0.8"/>
      </g>
     </g>
    </g>
    <g id="xtick_5">
     <g id="line2d_5">
      <g>
       <use xlink:href="#mc2a4c0de12" x="339.098892" y="84.303125" style="stroke: #000000; stroke-width: 0.8"/>
      </g>
     </g>
    </g>
    <g id="xtick_6">
     <g id="line2d_6">
      <g>
       <use xlink:href="#mc2a4c0de12" x="406.80966" y="84.303125" style="stroke: #000000; stroke-width: 0.8"/>
      </g>
     </g>
    </g>
   </g>
   <g id="matplotlib.axis_2">
    <g id="ytick_1">
     <g id="line2d_7">
      <defs>
       <path id="m30fed9da17" d="M 0 0 
L -3.5 0 
" style="stroke: #000000; stroke-width: 0.8"/>
      </defs>
      <g>
       <use xlink:href="#m30fed9da17" x="68.070312" y="68.627761" style="stroke: #000000; stroke-width: 0.8"/>
      </g>
     </g>
     <g id="text_1">
      <!-- 110000 -->
      <g transform="translate(22.895312 72.42698) scale(0.1 -0.1)">
       <defs>
        <path id="DejaVuSans-31" d="M 794 531 
L 1825 531 
L 1825 4091 
L 703 3866 
L 703 4441 
L 1819 4666 
L 2450 4666 
L 2450 531 
L 3481 531 
L 3481 0 
L 794 0 
L 794 531 
z
" transform="scale(0.015625)"/>
        <path id="DejaVuSans-30" d="M 2034 4250 
Q 1547 4250 1301 3770 
Q 1056 3291 1056 2328 
Q 1056 1369 1301 889 
Q 1547 409 2034 409 
Q 2525 409 2770 889 
Q 3016 1369 3016 2328 
Q 3016 3291 2770 3770 
Q 2525 4250 2034 4250 
z
M 2034 4750 
Q 2819 4750 3233 4129 
Q 3647 3509 3647 2328 
Q 3647 1150 3233 529 
Q 2819 -91 2034 -91 
Q 1250 -91 836 529 
Q 422 1150 422 2328 
Q 422 3509 836 4129 
Q 1250 4750 2034 4750 
z
" transform="scale(0.015625)"/>
       </defs>
       <use xlink:href="#DejaVuSans-31"/>
       <use xlink:href="#DejaVuSans-31" x="63.623047"/>
       <use xlink:href="#DejaVuSans-30" x="127.246094"/>
       <use xlink:href="#DejaVuSans-30" x="190.869141"/>
       <use xlink:href="#DejaVuSans-30" x="254.492188"/>
       <use xlink:href="#DejaVuSans-30" x="318.115234"/>
      </g>
     </g>
    </g>
    <g id="ytick_2">
     <g id="line2d_8">
      <g>
       <use xlink:href="#m30fed9da17" x="68.070312" y="49.492924" style="stroke: #000000; stroke-width: 0.8"/>
      </g>
     </g>
     <g id="text_2">
      <!-- 120000 -->
      <g transform="translate(22.895312 53.292142) scale(0.1 -0.1)">
       <defs>
        <path id="DejaVuSans-32" d="M 1228 531 
L 3431 531 
L 3431 0 
L 469 0 
L 469 531 
Q 828 903 1448 1529 
Q 2069 2156 2228 2338 
Q 2531 2678 2651 2914 
Q 2772 3150 2772 3378 
Q 2772 3750 2511 3984 
Q 2250 4219 1831 4219 
Q 1534 4219 1204 4116 
Q 875 4013 500 3803 
L 500 4441 
Q 881 4594 1212 4672 
Q 1544 4750 1819 4750 
Q 2544 4750 2975 4387 
Q 3406 4025 3406 3419 
Q 3406 3131 3298 2873 
Q 3191 2616 2906 2266 
Q 2828 2175 2409 1742 
Q 1991 1309 1228 531 
z
" transform="scale(0.015625)"/>
       </defs>
       <use xlink:href="#DejaVuSans-31"/>
       <use xlink:href="#DejaVuSans-32" x="63.623047"/>
       <use xlink:href="#DejaVuSans-30" x="127.246094"/>
       <use xlink:href="#DejaVuSans-30" x="190.869141"/>
       <use xlink:href="#DejaVuSans-30" x="254.492188"/>
       <use xlink:href="#DejaVuSans-30" x="318.115234"/>
      </g>
     </g>
    </g>
    <g id="ytick_3">
     <g id="line2d_9">
      <g>
       <use xlink:href="#m30fed9da17" x="68.070312" y="30.358086" style="stroke: #000000; stroke-width: 0.8"/>
      </g>
     </g>
     <g id="text_3">
      <!-- 130000 -->
      <g transform="translate(22.895312 34.157305) scale(0.1 -0.1)">
       <defs>
        <path id="DejaVuSans-33" d="M 2597 2516 
Q 3050 2419 3304 2112 
Q 3559 1806 3559 1356 
Q 3559 666 3084 287 
Q 2609 -91 1734 -91 
Q 1441 -91 1130 -33 
Q 819 25 488 141 
L 488 750 
Q 750 597 1062 519 
Q 1375 441 1716 441 
Q 2309 441 2620 675 
Q 2931 909 2931 1356 
Q 2931 1769 2642 2001 
Q 2353 2234 1838 2234 
L 1294 2234 
L 1294 2753 
L 1863 2753 
Q 2328 2753 2575 2939 
Q 2822 3125 2822 3475 
Q 2822 3834 2567 4026 
Q 2313 4219 1838 4219 
Q 1578 4219 1281 4162 
Q 984 4106 628 3988 
L 628 4550 
Q 988 4650 1302 4700 
Q 1616 4750 1894 4750 
Q 2613 4750 3031 4423 
Q 3450 4097 3450 3541 
Q 3450 3153 3228 2886 
Q 3006 2619 2597 2516 
z
" transform="scale(0.015625)"/>
       </defs>
       <use xlink:href="#DejaVuSans-31"/>
       <use xlink:href="#DejaVuSans-33" x="63.623047"/>
       <use xlink:href="#DejaVuSans-30" x="127.246094"/>
       <use xlink:href="#DejaVuSans-30" x="190.869141"/>
       <use xlink:href="#DejaVuSans-30" x="254.492188"/>
       <use xlink:href="#DejaVuSans-30" x="318.115234"/>
      </g>
     </g>
    </g>
   </g>
   <g id="line2d_10">
    <path d="M 68.070312 75.86945 
L 79.20085 71.740819 
L 82.076238 71.37084 
L 84.858873 72.872725 
L 87.734261 71.278903 
L 90.60965 70.501081 
L 93.392285 68.991428 
L 96.267673 67.745531 
L 99.050308 67.448598 
L 101.925696 70.266027 
L 113.056234 66.039656 
L 115.931622 65.543249 
L 118.714257 65.727082 
L 121.589645 64.63226 
L 124.465034 63.960251 
L 127.247668 61.834842 
L 130.123057 60.903565 
L 132.905691 60.629894 
L 135.78108 63.636682 
L 138.656469 62.380603 
L 141.346349 62.218133 
L 144.221738 60.132493 
L 147.004372 59.450051 
L 149.879761 59.687051 
L 152.662395 60.033863 
L 158.413172 58.426865 
L 161.195807 56.920715 
L 164.071196 55.918754 
L 166.85383 55.887444 
L 169.729219 59.538271 
L 175.201733 57.217924 
L 178.077121 56.312018 
L 180.859756 55.071367 
L 183.735144 54.4352 
L 186.517779 55.85253 
L 192.268556 54.014243 
L 195.051191 52.439941 
L 197.926579 51.30544 
L 200.709214 51.044164 
L 203.584602 54.244894 
L 206.459991 52.79444 
L 211.932505 51.657755 
L 214.71514 50.838983 
L 217.590528 50.111322 
L 220.373163 51.652747 
L 223.248551 50.429969 
L 226.12394 49.932121 
L 228.906574 48.123407 
L 231.781963 47.074471 
L 234.564598 46.869399 
L 237.439986 50.559139 
L 240.315375 49.441393 
L 242.9125 48.779061 
L 245.787889 48.182849 
L 248.570523 47.277966 
L 251.445912 46.683268 
L 254.228546 48.042517 
L 257.103935 46.807568 
L 259.979324 46.555888 
L 262.761958 44.746732 
L 265.637347 43.081163 
L 268.419981 43.383446 
L 271.29537 46.043046 
L 274.170759 44.735218 
L 276.860639 47.135531 
L 279.736027 81.485625 
L 282.518662 78.432895 
L 285.394051 71.3526 
L 288.176685 71.802455 
L 291.052074 70.214411 
L 293.927462 68.088521 
L 296.710097 63.513605 
L 299.585485 61.788942 
L 302.36812 63.52372 
L 305.243508 68.455357 
L 308.118897 64.505827 
L 310.716023 62.673133 
L 313.591411 59.763357 
L 316.374046 57.762334 
L 319.249434 56.983127 
L 322.032069 55.527466 
L 324.907457 53.857628 
L 327.782846 53.779023 
L 330.565481 48.885673 
L 333.440869 47.217853 
L 336.223504 46.804336 
L 339.098892 50.457329 
L 341.974281 47.509298 
L 344.571406 46.593572 
L 347.446795 45.099713 
L 350.229429 44.261759 
L 353.104818 43.953869 
L 355.887453 44.446344 
L 358.762841 43.56031 
L 361.63823 43.138216 
L 364.420864 41.839779 
L 367.296253 40.992063 
L 370.078887 41.303442 
L 372.954276 45.480072 
L 375.829665 44.230201 
L 378.42679 44.196629 
L 381.302179 43.425295 
L 384.084813 42.005904 
L 386.960202 41.91361 
L 389.742836 43.668089 
L 392.618225 42.780899 
L 395.493614 42.062952 
L 398.276248 40.757908 
L 401.151637 40.09877 
L 403.934271 40.033698 
L 406.80966 30.423649 
L 409.685049 30.624798 
L 412.374929 30.312275 
L 415.250317 29.726743 
L 418.032952 28.741784 
L 420.90834 29.212254 
L 423.690975 29.985607 
L 426.566364 29.325077 
L 429.441752 29.337531 
L 432.224387 26.951664 
L 435.099775 26.084378 
L 437.88241 25.683666 
L 440.757798 27.615141 
L 443.633187 27.067792 
L 446.230313 25.135625 
L 446.230313 25.135625 
" clip-path="url(#p6d20ad33a6)" style="fill: none; stroke: #1f77b4; stroke-width: 1.5; stroke-linecap: square"/>
   </g>
   <g id="patch_3">
    <path d="M 68.070312 84.303125 
L 68.070312 22.318125 
" style="fill: none; stroke: #000000; stroke-width: 0.8; stroke-linejoin: miter; stroke-linecap: square"/>
   </g>
   <g id="patch_4">
    <path d="M 446.230313 84.303125 
L 446.230313 22.318125 
" style="fill: none; stroke: #000000; stroke-width: 0.8; stroke-linejoin: miter; stroke-linecap: square"/>
   </g>
   <g id="patch_5">
    <path d="M 68.070312 84.303125 
L 446.230313 84.303125 
" style="fill: none; stroke: #000000; stroke-width: 0.8; stroke-linejoin: miter; stroke-linecap: square"/>
   </g>
   <g id="patch_6">
    <path d="M 68.070312 22.318125 
L 446.230313 22.318125 
" style="fill: none; stroke: #000000; stroke-width: 0.8; stroke-linejoin: miter; stroke-linecap: square"/>
   </g>
   <g id="text_4">
    <!-- Current Employment -->
    <g transform="translate(194.686563 16.318125) scale(0.12 -0.12)">
     <defs>
      <path id="DejaVuSans-43" d="M 4122 4306 
L 4122 3641 
Q 3803 3938 3442 4084 
Q 3081 4231 2675 4231 
Q 1875 4231 1450 3742 
Q 1025 3253 1025 2328 
Q 1025 1406 1450 917 
Q 1875 428 2675 428 
Q 3081 428 3442 575 
Q 3803 722 4122 1019 
L 4122 359 
Q 3791 134 3420 21 
Q 3050 -91 2638 -91 
Q 1578 -91 968 557 
Q 359 1206 359 2328 
Q 359 3453 968 4101 
Q 1578 4750 2638 4750 
Q 3056 4750 3426 4639 
Q 3797 4528 4122 4306 
z
" transform="scale(0.015625)"/>
      <path id="DejaVuSans-75" d="M 544 1381 
L 544 3500 
L 1119 3500 
L 1119 1403 
Q 1119 906 1312 657 
Q 1506 409 1894 409 
Q 2359 409 2629 706 
Q 2900 1003 2900 1516 
L 2900 3500 
L 3475 3500 
L 3475 0 
L 2900 0 
L 2900 538 
Q 2691 219 2414 64 
Q 2138 -91 1772 -91 
Q 1169 -91 856 284 
Q 544 659 544 1381 
z
M 1991 3584 
L 1991 3584 
z
" transform="scale(0.015625)"/>
      <path id="DejaVuSans-72" d="M 2631 2963 
Q 2534 3019 2420 3045 
Q 2306 3072 2169 3072 
Q 1681 3072 1420 2755 
Q 1159 2438 1159 1844 
L 1159 0 
L 581 0 
L 581 3500 
L 1159 3500 
L 1159 2956 
Q 1341 3275 1631 3429 
Q 1922 3584 2338 3584 
Q 2397 3584 2469 3576 
Q 2541 3569 2628 3553 
L 2631 2963 
z
" transform="scale(0.015625)"/>
      <path id="DejaVuSans-65" d="M 3597 1894 
L 3597 1613 
L 953 1613 
Q 991 1019 1311 708 
Q 1631 397 2203 397 
Q 2534 397 2845 478 
Q 3156 559 3463 722 
L 3463 178 
Q 3153 47 2828 -22 
Q 2503 -91 2169 -91 
Q 1331 -91 842 396 
Q 353 884 353 1716 
Q 353 2575 817 3079 
Q 1281 3584 2069 3584 
Q 2775 3584 3186 3129 
Q 3597 2675 3597 1894 
z
M 3022 2063 
Q 3016 2534 2758 2815 
Q 2500 3097 2075 3097 
Q 1594 3097 1305 2825 
Q 1016 2553 972 2059 
L 3022 2063 
z
" transform="scale(0.015625)"/>
      <path id="DejaVuSans-6e" d="M 3513 2113 
L 3513 0 
L 2938 0 
L 2938 2094 
Q 2938 2591 2744 2837 
Q 2550 3084 2163 3084 
Q 1697 3084 1428 2787 
Q 1159 2491 1159 1978 
L 1159 0 
L 581 0 
L 581 3500 
L 1159 3500 
L 1159 2956 
Q 1366 3272 1645 3428 
Q 1925 3584 2291 3584 
Q 2894 3584 3203 3211 
Q 3513 2838 3513 2113 
z
" transform="scale(0.015625)"/>
      <path id="DejaVuSans-74" d="M 1172 4494 
L 1172 3500 
L 2356 3500 
L 2356 3053 
L 1172 3053 
L 1172 1153 
Q 1172 725 1289 603 
Q 1406 481 1766 481 
L 2356 481 
L 2356 0 
L 1766 0 
Q 1100 0 847 248 
Q 594 497 594 1153 
L 594 3053 
L 172 3053 
L 172 3500 
L 594 3500 
L 594 4494 
L 1172 4494 
z
" transform="scale(0.015625)"/>
      <path id="DejaVuSans-20" transform="scale(0.015625)"/>
      <path id="DejaVuSans-45" d="M 628 4666 
L 3578 4666 
L 3578 4134 
L 1259 4134 
L 1259 2753 
L 3481 2753 
L 3481 2222 
L 1259 2222 
L 1259 531 
L 3634 531 
L 3634 0 
L 628 0 
L 628 4666 
z
" transform="scale(0.015625)"/>
      <path id="DejaVuSans-6d" d="M 3328 2828 
Q 3544 3216 3844 3400 
Q 4144 3584 4550 3584 
Q 5097 3584 5394 3201 
Q 5691 2819 5691 2113 
L 5691 0 
L 5113 0 
L 5113 2094 
Q 5113 2597 4934 2840 
Q 4756 3084 4391 3084 
Q 3944 3084 3684 2787 
Q 3425 2491 3425 1978 
L 3425 0 
L 2847 0 
L 2847 2094 
Q 2847 2600 2669 2842 
Q 2491 3084 2119 3084 
Q 1678 3084 1418 2786 
Q 1159 2488 1159 1978 
L 1159 0 
L 581 0 
L 581 3500 
L 1159 3500 
L 1159 2956 
Q 1356 3278 1631 3431 
Q 1906 3584 2284 3584 
Q 2666 3584 2933 3390 
Q 3200 3197 3328 2828 
z
" transform="scale(0.015625)"/>
      <path id="DejaVuSans-70" d="M 1159 525 
L 1159 -1331 
L 581 -1331 
L 581 3500 
L 1159 3500 
L 1159 2969 
Q 1341 3281 1617 3432 
Q 1894 3584 2278 3584 
Q 2916 3584 3314 3078 
Q 3713 2572 3713 1747 
Q 3713 922 3314 415 
Q 2916 -91 2278 -91 
Q 1894 -91 1617 61 
Q 1341 213 1159 525 
z
M 3116 1747 
Q 3116 2381 2855 2742 
Q 2594 3103 2138 3103 
Q 1681 3103 1420 2742 
Q 1159 2381 1159 1747 
Q 1159 1113 1420 752 
Q 1681 391 2138 391 
Q 2594 391 2855 752 
Q 3116 1113 3116 1747 
z
" transform="scale(0.015625)"/>
      <path id="DejaVuSans-6c" d="M 603 4863 
L 1178 4863 
L 1178 0 
L 603 0 
L 603 4863 
z
" transform="scale(0.015625)"/>
      <path id="DejaVuSans-6f" d="M 1959 3097 
Q 1497 3097 1228 2736 
Q 959 2375 959 1747 
Q 959 1119 1226 758 
Q 1494 397 1959 397 
Q 2419 397 2687 759 
Q 2956 1122 2956 1747 
Q 2956 2369 2687 2733 
Q 2419 3097 1959 3097 
z
M 1959 3584 
Q 2709 3584 3137 3096 
Q 3566 2609 3566 1747 
Q 3566 888 3137 398 
Q 2709 -91 1959 -91 
Q 1206 -91 779 398 
Q 353 888 353 1747 
Q 353 2609 779 3096 
Q 1206 3584 1959 3584 
z
" transform="scale(0.015625)"/>
      <path id="DejaVuSans-79" d="M 2059 -325 
Q 1816 -950 1584 -1140 
Q 1353 -1331 966 -1331 
L 506 -1331 
L 506 -850 
L 844 -850 
Q 1081 -850 1212 -737 
Q 1344 -625 1503 -206 
L 1606 56 
L 191 3500 
L 800 3500 
L 1894 763 
L 2988 3500 
L 3597 3500 
L 2059 -325 
z
" transform="scale(0.015625)"/>
     </defs>
     <use xlink:href="#DejaVuSans-43"/>
     <use xlink:href="#DejaVuSans-75" x="69.824219"/>
     <use xlink:href="#DejaVuSans-72" x="133.203125"/>
     <use xlink:href="#DejaVuSans-72" x="172.566406"/>
     <use xlink:href="#DejaVuSans-65" x="211.429688"/>
     <use xlink:href="#DejaVuSans-6e" x="272.953125"/>
     <use xlink:href="#DejaVuSans-74" x="336.332031"/>
     <use xlink:href="#DejaVuSans-20" x="375.541016"/>
     <use xlink:href="#DejaVuSans-45" x="407.328125"/>
     <use xlink:href="#DejaVuSans-6d" x="470.511719"/>
     <use xlink:href="#DejaVuSans-70" x="567.923828"/>
     <use xlink:href="#DejaVuSans-6c" x="631.400391"/>
     <use xlink:href="#DejaVuSans-6f" x="659.183594"/>
     <use xlink:href="#DejaVuSans-79" x="720.365234"/>
     <use xlink:href="#DejaVuSans-6d" x="779.544922"/>
     <use xlink:href="#DejaVuSans-65" x="876.957031"/>
     <use xlink:href="#DejaVuSans-6e" x="938.480469"/>
     <use xlink:href="#DejaVuSans-74" x="1001.859375"/>
    </g>
   </g>
  </g>
  <g id="axes_2">
   <g id="patch_7">
    <path d="M 68.070312 160.588125 
L 446.230313 160.588125 
L 446.230313 98.603125 
L 68.070312 98.603125 
z
" style="fill: #ffffff"/>
   </g>
   <g id="matplotlib.axis_3">
    <g id="xtick_7">
     <g id="line2d_11">
      <g>
       <use xlink:href="#mc2a4c0de12" x="68.070312" y="160.588125" style="stroke: #000000; stroke-width: 0.8"/>
      </g>
     </g>
    </g>
    <g id="xtick_8">
     <g id="line2d_12">
      <g>
       <use xlink:href="#mc2a4c0de12" x="135.78108" y="160.588125" style="stroke: #000000; stroke-width: 0.8"/>
      </g>
     </g>
    </g>
    <g id="xtick_9">
     <g id="line2d_13">
      <g>
       <use xlink:href="#mc2a4c0de12" x="203.584602" y="160.588125" style="stroke: #000000; stroke-width: 0.8"/>
      </g>
     </g>
    </g>
    <g id="xtick_10">
     <g id="line2d_14">
      <g>
       <use xlink:href="#mc2a4c0de12" x="271.29537" y="160.588125" style="stroke: #000000; stroke-width: 0.8"/>
      </g>
     </g>
    </g>
    <g id="xtick_11">
     <g id="line2d_15">
      <g>
       <use xlink:href="#mc2a4c0de12" x="339.098892" y="160.588125" style="stroke: #000000; stroke-width: 0.8"/>
      </g>
     </g>
    </g>
    <g id="xtick_12">
     <g id="line2d_16">
      <g>
       <use xlink:href="#mc2a4c0de12" x="406.80966" y="160.588125" style="stroke: #000000; stroke-width: 0.8"/>
      </g>
     </g>
    </g>
   </g>
   <g id="matplotlib.axis_4">
    <g id="ytick_4">
     <g id="line2d_17">
      <g>
       <use xlink:href="#m30fed9da17" x="68.070312" y="154.186654" style="stroke: #000000; stroke-width: 0.8"/>
      </g>
     </g>
     <g id="text_5">
      <!-- 110000 -->
      <g transform="translate(22.895312 157.985872) scale(0.1 -0.1)">
       <use xlink:href="#DejaVuSans-31"/>
       <use xlink:href="#DejaVuSans-31" x="63.623047"/>
       <use xlink:href="#DejaVuSans-30" x="127.246094"/>
       <use xlink:href="#DejaVuSans-30" x="190.869141"/>
       <use xlink:href="#DejaVuSans-30" x="254.492188"/>
       <use xlink:href="#DejaVuSans-30" x="318.115234"/>
      </g>
     </g>
    </g>
    <g id="ytick_5">
     <g id="line2d_18">
      <g>
       <use xlink:href="#m30fed9da17" x="68.070312" y="129.260523" style="stroke: #000000; stroke-width: 0.8"/>
      </g>
     </g>
     <g id="text_6">
      <!-- 120000 -->
      <g transform="translate(22.895312 133.059741) scale(0.1 -0.1)">
       <use xlink:href="#DejaVuSans-31"/>
       <use xlink:href="#DejaVuSans-32" x="63.623047"/>
       <use xlink:href="#DejaVuSans-30" x="127.246094"/>
       <use xlink:href="#DejaVuSans-30" x="190.869141"/>
       <use xlink:href="#DejaVuSans-30" x="254.492188"/>
       <use xlink:href="#DejaVuSans-30" x="318.115234"/>
      </g>
     </g>
    </g>
    <g id="ytick_6">
     <g id="line2d_19">
      <g>
       <use xlink:href="#m30fed9da17" x="68.070312" y="104.334392" style="stroke: #000000; stroke-width: 0.8"/>
      </g>
     </g>
     <g id="text_7">
      <!-- 130000 -->
      <g transform="translate(22.895312 108.13361) scale(0.1 -0.1)">
       <use xlink:href="#DejaVuSans-31"/>
       <use xlink:href="#DejaVuSans-33" x="63.623047"/>
       <use xlink:href="#DejaVuSans-30" x="127.246094"/>
       <use xlink:href="#DejaVuSans-30" x="190.869141"/>
       <use xlink:href="#DejaVuSans-30" x="254.492188"/>
       <use xlink:href="#DejaVuSans-30" x="318.115234"/>
      </g>
     </g>
    </g>
    <g id="text_8">
     <!-- Trend -->
     <g transform="translate(16.815625 143.274531) rotate(-90) scale(0.1 -0.1)">
      <defs>
       <path id="DejaVuSans-54" d="M -19 4666 
L 3928 4666 
L 3928 4134 
L 2272 4134 
L 2272 0 
L 1638 0 
L 1638 4134 
L -19 4134 
L -19 4666 
z
" transform="scale(0.015625)"/>
       <path id="DejaVuSans-64" d="M 2906 2969 
L 2906 4863 
L 3481 4863 
L 3481 0 
L 2906 0 
L 2906 525 
Q 2725 213 2448 61 
Q 2172 -91 1784 -91 
Q 1150 -91 751 415 
Q 353 922 353 1747 
Q 353 2572 751 3078 
Q 1150 3584 1784 3584 
Q 2172 3584 2448 3432 
Q 2725 3281 2906 2969 
z
M 947 1747 
Q 947 1113 1208 752 
Q 1469 391 1925 391 
Q 2381 391 2643 752 
Q 2906 1113 2906 1747 
Q 2906 2381 2643 2742 
Q 2381 3103 1925 3103 
Q 1469 3103 1208 2742 
Q 947 2381 947 1747 
z
" transform="scale(0.015625)"/>
      </defs>
      <use xlink:href="#DejaVuSans-54"/>
      <use xlink:href="#DejaVuSans-72" x="46.333984"/>
      <use xlink:href="#DejaVuSans-65" x="85.197266"/>
      <use xlink:href="#DejaVuSans-6e" x="146.720703"/>
      <use xlink:href="#DejaVuSans-64" x="210.099609"/>
     </g>
    </g>
   </g>
   <g id="line2d_20">
    <path d="M 84.858873 157.770625 
L 99.050308 154.686267 
L 104.801085 153.233504 
L 115.931622 150.272993 
L 127.247668 147.413964 
L 132.905691 146.000308 
L 144.221738 143.613012 
L 152.662395 142.067894 
L 164.071196 140.202541 
L 172.604607 138.708004 
L 209.057117 132.176528 
L 223.248551 129.991798 
L 240.315375 127.704854 
L 259.979324 124.872943 
L 262.761958 126.591324 
L 265.637347 130.089919 
L 268.419981 133.119913 
L 276.860639 140.747813 
L 282.518662 144.96919 
L 285.394051 147.07776 
L 291.052074 151.676981 
L 293.927462 153.593418 
L 296.710097 153.257731 
L 299.585485 150.956759 
L 302.36812 149.054878 
L 308.118897 145.62041 
L 310.716023 143.955925 
L 316.374046 140.800431 
L 319.249434 139.102066 
L 324.907457 135.318284 
L 330.565481 131.85434 
L 336.223504 128.88569 
L 339.098892 127.577042 
L 347.446795 124.320222 
L 353.104818 122.963376 
L 355.887453 122.394649 
L 358.762841 121.946516 
L 364.420864 121.417453 
L 372.954276 120.817965 
L 384.084813 120.408461 
L 386.960202 120.291057 
L 389.742836 119.404916 
L 398.276248 114.860028 
L 418.032952 104.711035 
L 420.90834 103.171489 
L 423.690975 102.240168 
L 426.566364 101.894665 
L 429.441752 101.420625 
L 429.441752 101.420625 
" clip-path="url(#pb9c81d0a44)" style="fill: none; stroke: #1f77b4; stroke-width: 1.5; stroke-linecap: square"/>
   </g>
   <g id="patch_8">
    <path d="M 68.070312 160.588125 
L 68.070312 98.603125 
" style="fill: none; stroke: #000000; stroke-width: 0.8; stroke-linejoin: miter; stroke-linecap: square"/>
   </g>
   <g id="patch_9">
    <path d="M 446.230313 160.588125 
L 446.230313 98.603125 
" style="fill: none; stroke: #000000; stroke-width: 0.8; stroke-linejoin: miter; stroke-linecap: square"/>
   </g>
   <g id="patch_10">
    <path d="M 68.070312 160.588125 
L 446.230313 160.588125 
" style="fill: none; stroke: #000000; stroke-width: 0.8; stroke-linejoin: miter; stroke-linecap: square"/>
   </g>
   <g id="patch_11">
    <path d="M 68.070312 98.603125 
L 446.230313 98.603125 
" style="fill: none; stroke: #000000; stroke-width: 0.8; stroke-linejoin: miter; stroke-linecap: square"/>
   </g>
  </g>
  <g id="axes_3">
   <g id="patch_12">
    <path d="M 68.070312 236.873125 
L 446.230313 236.873125 
L 446.230313 174.888125 
L 68.070312 174.888125 
z
" style="fill: #ffffff"/>
   </g>
   <g id="matplotlib.axis_5">
    <g id="xtick_13">
     <g id="line2d_21">
      <g>
       <use xlink:href="#mc2a4c0de12" x="68.070312" y="236.873125" style="stroke: #000000; stroke-width: 0.8"/>
      </g>
     </g>
    </g>
    <g id="xtick_14">
     <g id="line2d_22">
      <g>
       <use xlink:href="#mc2a4c0de12" x="135.78108" y="236.873125" style="stroke: #000000; stroke-width: 0.8"/>
      </g>
     </g>
    </g>
    <g id="xtick_15">
     <g id="line2d_23">
      <g>
       <use xlink:href="#mc2a4c0de12" x="203.584602" y="236.873125" style="stroke: #000000; stroke-width: 0.8"/>
      </g>
     </g>
    </g>
    <g id="xtick_16">
     <g id="line2d_24">
      <g>
       <use xlink:href="#mc2a4c0de12" x="271.29537" y="236.873125" style="stroke: #000000; stroke-width: 0.8"/>
      </g>
     </g>
    </g>
    <g id="xtick_17">
     <g id="line2d_25">
      <g>
       <use xlink:href="#mc2a4c0de12" x="339.098892" y="236.873125" style="stroke: #000000; stroke-width: 0.8"/>
      </g>
     </g>
    </g>
    <g id="xtick_18">
     <g id="line2d_26">
      <g>
       <use xlink:href="#mc2a4c0de12" x="406.80966" y="236.873125" style="stroke: #000000; stroke-width: 0.8"/>
      </g>
     </g>
    </g>
   </g>
   <g id="matplotlib.axis_6">
    <g id="ytick_7">
     <g id="line2d_27">
      <g>
       <use xlink:href="#m30fed9da17" x="68.070312" y="232.015748" style="stroke: #000000; stroke-width: 0.8"/>
      </g>
     </g>
     <g id="text_9">
      <!-- −1000 -->
      <g transform="translate(27.240625 235.814967) scale(0.1 -0.1)">
       <defs>
        <path id="DejaVuSans-2212" d="M 678 2272 
L 4684 2272 
L 4684 1741 
L 678 1741 
L 678 2272 
z
" transform="scale(0.015625)"/>
       </defs>
       <use xlink:href="#DejaVuSans-2212"/>
       <use xlink:href="#DejaVuSans-31" x="83.789062"/>
       <use xlink:href="#DejaVuSans-30" x="147.412109"/>
       <use xlink:href="#DejaVuSans-30" x="211.035156"/>
       <use xlink:href="#DejaVuSans-30" x="274.658203"/>
      </g>
     </g>
    </g>
    <g id="ytick_8">
     <g id="line2d_28">
      <g>
       <use xlink:href="#m30fed9da17" x="68.070312" y="207.708043" style="stroke: #000000; stroke-width: 0.8"/>
      </g>
     </g>
     <g id="text_10">
      <!-- 0 -->
      <g transform="translate(54.707813 211.507262) scale(0.1 -0.1)">
       <use xlink:href="#DejaVuSans-30"/>
      </g>
     </g>
    </g>
    <g id="ytick_9">
     <g id="line2d_29">
      <g>
       <use xlink:href="#m30fed9da17" x="68.070312" y="183.400338" style="stroke: #000000; stroke-width: 0.8"/>
      </g>
     </g>
     <g id="text_11">
      <!-- 1000 -->
      <g transform="translate(35.620312 187.199557) scale(0.1 -0.1)">
       <use xlink:href="#DejaVuSans-31"/>
       <use xlink:href="#DejaVuSans-30" x="63.623047"/>
       <use xlink:href="#DejaVuSans-30" x="127.246094"/>
       <use xlink:href="#DejaVuSans-30" x="190.869141"/>
      </g>
     </g>
    </g>
    <g id="text_12">
     <!-- Seasonal -->
     <g transform="translate(21.160937 228.481406) rotate(-90) scale(0.1 -0.1)">
      <defs>
       <path id="DejaVuSans-53" d="M 3425 4513 
L 3425 3897 
Q 3066 4069 2747 4153 
Q 2428 4238 2131 4238 
Q 1616 4238 1336 4038 
Q 1056 3838 1056 3469 
Q 1056 3159 1242 3001 
Q 1428 2844 1947 2747 
L 2328 2669 
Q 3034 2534 3370 2195 
Q 3706 1856 3706 1288 
Q 3706 609 3251 259 
Q 2797 -91 1919 -91 
Q 1588 -91 1214 -16 
Q 841 59 441 206 
L 441 856 
Q 825 641 1194 531 
Q 1563 422 1919 422 
Q 2459 422 2753 634 
Q 3047 847 3047 1241 
Q 3047 1584 2836 1778 
Q 2625 1972 2144 2069 
L 1759 2144 
Q 1053 2284 737 2584 
Q 422 2884 422 3419 
Q 422 4038 858 4394 
Q 1294 4750 2059 4750 
Q 2388 4750 2728 4690 
Q 3069 4631 3425 4513 
z
" transform="scale(0.015625)"/>
       <path id="DejaVuSans-61" d="M 2194 1759 
Q 1497 1759 1228 1600 
Q 959 1441 959 1056 
Q 959 750 1161 570 
Q 1363 391 1709 391 
Q 2188 391 2477 730 
Q 2766 1069 2766 1631 
L 2766 1759 
L 2194 1759 
z
M 3341 1997 
L 3341 0 
L 2766 0 
L 2766 531 
Q 2569 213 2275 61 
Q 1981 -91 1556 -91 
Q 1019 -91 701 211 
Q 384 513 384 1019 
Q 384 1609 779 1909 
Q 1175 2209 1959 2209 
L 2766 2209 
L 2766 2266 
Q 2766 2663 2505 2880 
Q 2244 3097 1772 3097 
Q 1472 3097 1187 3025 
Q 903 2953 641 2809 
L 641 3341 
Q 956 3463 1253 3523 
Q 1550 3584 1831 3584 
Q 2591 3584 2966 3190 
Q 3341 2797 3341 1997 
z
" transform="scale(0.015625)"/>
       <path id="DejaVuSans-73" d="M 2834 3397 
L 2834 2853 
Q 2591 2978 2328 3040 
Q 2066 3103 1784 3103 
Q 1356 3103 1142 2972 
Q 928 2841 928 2578 
Q 928 2378 1081 2264 
Q 1234 2150 1697 2047 
L 1894 2003 
Q 2506 1872 2764 1633 
Q 3022 1394 3022 966 
Q 3022 478 2636 193 
Q 2250 -91 1575 -91 
Q 1294 -91 989 -36 
Q 684 19 347 128 
L 347 722 
Q 666 556 975 473 
Q 1284 391 1588 391 
Q 1994 391 2212 530 
Q 2431 669 2431 922 
Q 2431 1156 2273 1281 
Q 2116 1406 1581 1522 
L 1381 1569 
Q 847 1681 609 1914 
Q 372 2147 372 2553 
Q 372 3047 722 3315 
Q 1072 3584 1716 3584 
Q 2034 3584 2315 3537 
Q 2597 3491 2834 3397 
z
" transform="scale(0.015625)"/>
      </defs>
      <use xlink:href="#DejaVuSans-53"/>
      <use xlink:href="#DejaVuSans-65" x="63.476562"/>
      <use xlink:href="#DejaVuSans-61" x="125"/>
      <use xlink:href="#DejaVuSans-73" x="186.279297"/>
      <use xlink:href="#DejaVuSans-6f" x="238.378906"/>
      <use xlink:href="#DejaVuSans-6e" x="299.560547"/>
      <use xlink:href="#DejaVuSans-61" x="362.939453"/>
      <use xlink:href="#DejaVuSans-6c" x="424.21875"/>
     </g>
    </g>
   </g>
   <g id="line2d_30">
    <path d="M 68.070312 215.904319 
L 70.945701 200.795808 
L 73.542827 200.02354 
L 76.418215 234.055625 
L 79.20085 221.914083 
L 82.076238 213.617431 
L 84.858873 226.80052 
L 87.734261 216.97268 
L 90.60965 213.177739 
L 93.392285 188.29778 
L 96.267673 177.705625 
L 99.050308 183.231368 
L 101.925696 215.904319 
L 104.801085 200.795808 
L 107.39821 200.02354 
L 110.273599 234.055625 
L 113.056234 221.914083 
L 115.931622 213.617431 
L 118.714257 226.80052 
L 121.589645 216.97268 
L 124.465034 213.177739 
L 127.247668 188.29778 
L 130.123057 177.705625 
L 132.905691 183.231368 
L 135.78108 215.904319 
L 138.656469 200.795808 
L 141.346349 200.02354 
L 144.221738 234.055625 
L 147.004372 221.914083 
L 149.879761 213.617431 
L 152.662395 226.80052 
L 155.537784 216.97268 
L 158.413172 213.177739 
L 161.195807 188.29778 
L 164.071196 177.705625 
L 166.85383 183.231368 
L 169.729219 215.904319 
L 172.604607 200.795808 
L 175.201733 200.02354 
L 178.077121 234.055625 
L 180.859756 221.914083 
L 183.735144 213.617431 
L 186.517779 226.80052 
L 189.393168 216.97268 
L 192.268556 213.177739 
L 195.051191 188.29778 
L 197.926579 177.705625 
L 200.709214 183.231368 
L 203.584602 215.904319 
L 206.459991 200.795808 
L 209.057117 200.02354 
L 211.932505 234.055625 
L 214.71514 221.914083 
L 217.590528 213.617431 
L 220.373163 226.80052 
L 223.248551 216.97268 
L 226.12394 213.177739 
L 228.906574 188.29778 
L 231.781963 177.705625 
L 234.564598 183.231368 
L 237.439986 215.904319 
L 240.315375 200.795808 
L 242.9125 200.02354 
L 245.787889 234.055625 
L 248.570523 221.914083 
L 251.445912 213.617431 
L 254.228546 226.80052 
L 257.103935 216.97268 
L 259.979324 213.177739 
L 262.761958 188.29778 
L 265.637347 177.705625 
L 268.419981 183.231368 
L 271.29537 215.904319 
L 274.170759 200.795808 
L 276.860639 200.02354 
L 279.736027 234.055625 
L 282.518662 221.914083 
L 285.394051 213.617431 
L 288.176685 226.80052 
L 291.052074 216.97268 
L 293.927462 213.177739 
L 296.710097 188.29778 
L 299.585485 177.705625 
L 302.36812 183.231368 
L 305.243508 215.904319 
L 308.118897 200.795808 
L 310.716023 200.02354 
L 313.591411 234.055625 
L 316.374046 221.914083 
L 319.249434 213.617431 
L 322.032069 226.80052 
L 324.907457 216.97268 
L 327.782846 213.177739 
L 330.565481 188.29778 
L 333.440869 177.705625 
L 336.223504 183.231368 
L 339.098892 215.904319 
L 341.974281 200.795808 
L 344.571406 200.02354 
L 347.446795 234.055625 
L 350.229429 221.914083 
L 353.104818 213.617431 
L 355.887453 226.80052 
L 358.762841 216.97268 
L 361.63823 213.177739 
L 364.420864 188.29778 
L 367.296253 177.705625 
L 370.078887 183.231368 
L 372.954276 215.904319 
L 375.829665 200.795808 
L 378.42679 200.02354 
L 381.302179 234.055625 
L 384.084813 221.914083 
L 386.960202 213.617431 
L 389.742836 226.80052 
L 392.618225 216.97268 
L 395.493614 213.177739 
L 398.276248 188.29778 
L 401.151637 177.705625 
L 403.934271 183.231368 
L 406.80966 215.904319 
L 409.685049 200.795808 
L 412.374929 200.02354 
L 415.250317 234.055625 
L 418.032952 221.914083 
L 420.90834 213.617431 
L 423.690975 226.80052 
L 426.566364 216.97268 
L 429.441752 213.177739 
L 432.224387 188.29778 
L 435.099775 177.705625 
L 437.88241 183.231368 
L 440.757798 215.904319 
L 443.633187 200.795808 
L 446.230313 200.02354 
L 446.230313 200.02354 
" clip-path="url(#pe1ae20c19b)" style="fill: none; stroke: #1f77b4; stroke-width: 1.5; stroke-linecap: square"/>
   </g>
   <g id="patch_13">
    <path d="M 68.070312 236.873125 
L 68.070312 174.888125 
" style="fill: none; stroke: #000000; stroke-width: 0.8; stroke-linejoin: miter; stroke-linecap: square"/>
   </g>
   <g id="patch_14">
    <path d="M 446.230313 236.873125 
L 446.230313 174.888125 
" style="fill: none; stroke: #000000; stroke-width: 0.8; stroke-linejoin: miter; stroke-linecap: square"/>
   </g>
   <g id="patch_15">
    <path d="M 68.070312 236.873125 
L 446.230313 236.873125 
" style="fill: none; stroke: #000000; stroke-width: 0.8; stroke-linejoin: miter; stroke-linecap: square"/>
   </g>
   <g id="patch_16">
    <path d="M 68.070312 174.888125 
L 446.230313 174.888125 
" style="fill: none; stroke: #000000; stroke-width: 0.8; stroke-linejoin: miter; stroke-linecap: square"/>
   </g>
  </g>
  <g id="axes_4">
   <g id="patch_17">
    <path d="M 68.070312 313.158125 
L 446.230313 313.158125 
L 446.230313 251.173125 
L 68.070312 251.173125 
z
" style="fill: #ffffff"/>
   </g>
   <g id="line2d_31">
    <path d="M 68.070312 274.553838 
L 446.230313 274.553838 
" clip-path="url(#pf9c6e127c7)" style="fill: none; stroke: #000000; stroke-width: 1.5; stroke-linecap: square"/>
   </g>
   <g id="matplotlib.axis_7">
    <g id="xtick_19">
     <g id="line2d_32">
      <g>
       <use xlink:href="#mc2a4c0de12" x="68.070312" y="313.158125" style="stroke: #000000; stroke-width: 0.8"/>
      </g>
     </g>
     <g id="text_13">
      <!-- 2014 -->
      <g transform="translate(55.345312 327.756562) scale(0.1 -0.1)">
       <defs>
        <path id="DejaVuSans-34" d="M 2419 4116 
L 825 1625 
L 2419 1625 
L 2419 4116 
z
M 2253 4666 
L 3047 4666 
L 3047 1625 
L 3713 1625 
L 3713 1100 
L 3047 1100 
L 3047 0 
L 2419 0 
L 2419 1100 
L 313 1100 
L 313 1709 
L 2253 4666 
z
" transform="scale(0.015625)"/>
       </defs>
       <use xlink:href="#DejaVuSans-32"/>
       <use xlink:href="#DejaVuSans-30" x="63.623047"/>
       <use xlink:href="#DejaVuSans-31" x="127.246094"/>
       <use xlink:href="#DejaVuSans-34" x="190.869141"/>
      </g>
     </g>
    </g>
    <g id="xtick_20">
     <g id="line2d_33">
      <g>
       <use xlink:href="#mc2a4c0de12" x="135.78108" y="313.158125" style="stroke: #000000; stroke-width: 0.8"/>
      </g>
     </g>
     <g id="text_14">
      <!-- 2016 -->
      <g transform="translate(123.05608 327.756562) scale(0.1 -0.1)">
       <defs>
        <path id="DejaVuSans-36" d="M 2113 2584 
Q 1688 2584 1439 2293 
Q 1191 2003 1191 1497 
Q 1191 994 1439 701 
Q 1688 409 2113 409 
Q 2538 409 2786 701 
Q 3034 994 3034 1497 
Q 3034 2003 2786 2293 
Q 2538 2584 2113 2584 
z
M 3366 4563 
L 3366 3988 
Q 3128 4100 2886 4159 
Q 2644 4219 2406 4219 
Q 1781 4219 1451 3797 
Q 1122 3375 1075 2522 
Q 1259 2794 1537 2939 
Q 1816 3084 2150 3084 
Q 2853 3084 3261 2657 
Q 3669 2231 3669 1497 
Q 3669 778 3244 343 
Q 2819 -91 2113 -91 
Q 1303 -91 875 529 
Q 447 1150 447 2328 
Q 447 3434 972 4092 
Q 1497 4750 2381 4750 
Q 2619 4750 2861 4703 
Q 3103 4656 3366 4563 
z
" transform="scale(0.015625)"/>
       </defs>
       <use xlink:href="#DejaVuSans-32"/>
       <use xlink:href="#DejaVuSans-30" x="63.623047"/>
       <use xlink:href="#DejaVuSans-31" x="127.246094"/>
       <use xlink:href="#DejaVuSans-36" x="190.869141"/>
      </g>
     </g>
    </g>
    <g id="xtick_21">
     <g id="line2d_34">
      <g>
       <use xlink:href="#mc2a4c0de12" x="203.584602" y="313.158125" style="stroke: #000000; stroke-width: 0.8"/>
      </g>
     </g>
     <g id="text_15">
      <!-- 2018 -->
      <g transform="translate(190.859602 327.756562) scale(0.1 -0.1)">
       <defs>
        <path id="DejaVuSans-38" d="M 2034 2216 
Q 1584 2216 1326 1975 
Q 1069 1734 1069 1313 
Q 1069 891 1326 650 
Q 1584 409 2034 409 
Q 2484 409 2743 651 
Q 3003 894 3003 1313 
Q 3003 1734 2745 1975 
Q 2488 2216 2034 2216 
z
M 1403 2484 
Q 997 2584 770 2862 
Q 544 3141 544 3541 
Q 544 4100 942 4425 
Q 1341 4750 2034 4750 
Q 2731 4750 3128 4425 
Q 3525 4100 3525 3541 
Q 3525 3141 3298 2862 
Q 3072 2584 2669 2484 
Q 3125 2378 3379 2068 
Q 3634 1759 3634 1313 
Q 3634 634 3220 271 
Q 2806 -91 2034 -91 
Q 1263 -91 848 271 
Q 434 634 434 1313 
Q 434 1759 690 2068 
Q 947 2378 1403 2484 
z
M 1172 3481 
Q 1172 3119 1398 2916 
Q 1625 2713 2034 2713 
Q 2441 2713 2670 2916 
Q 2900 3119 2900 3481 
Q 2900 3844 2670 4047 
Q 2441 4250 2034 4250 
Q 1625 4250 1398 4047 
Q 1172 3844 1172 3481 
z
" transform="scale(0.015625)"/>
       </defs>
       <use xlink:href="#DejaVuSans-32"/>
       <use xlink:href="#DejaVuSans-30" x="63.623047"/>
       <use xlink:href="#DejaVuSans-31" x="127.246094"/>
       <use xlink:href="#DejaVuSans-38" x="190.869141"/>
      </g>
     </g>
    </g>
    <g id="xtick_22">
     <g id="line2d_35">
      <g>
       <use xlink:href="#mc2a4c0de12" x="271.29537" y="313.158125" style="stroke: #000000; stroke-width: 0.8"/>
      </g>
     </g>
     <g id="text_16">
      <!-- 2020 -->
      <g transform="translate(258.57037 327.756562) scale(0.1 -0.1)">
       <use xlink:href="#DejaVuSans-32"/>
       <use xlink:href="#DejaVuSans-30" x="63.623047"/>
       <use xlink:href="#DejaVuSans-32" x="127.246094"/>
       <use xlink:href="#DejaVuSans-30" x="190.869141"/>
      </g>
     </g>
    </g>
    <g id="xtick_23">
     <g id="line2d_36">
      <g>
       <use xlink:href="#mc2a4c0de12" x="339.098892" y="313.158125" style="stroke: #000000; stroke-width: 0.8"/>
      </g>
     </g>
     <g id="text_17">
      <!-- 2022 -->
      <g transform="translate(326.373892 327.756562) scale(0.1 -0.1)">
       <use xlink:href="#DejaVuSans-32"/>
       <use xlink:href="#DejaVuSans-30" x="63.623047"/>
       <use xlink:href="#DejaVuSans-32" x="127.246094"/>
       <use xlink:href="#DejaVuSans-32" x="190.869141"/>
      </g>
     </g>
    </g>
    <g id="xtick_24">
     <g id="line2d_37">
      <g>
       <use xlink:href="#mc2a4c0de12" x="406.80966" y="313.158125" style="stroke: #000000; stroke-width: 0.8"/>
      </g>
     </g>
     <g id="text_18">
      <!-- 2024 -->
      <g transform="translate(394.08466 327.756562) scale(0.1 -0.1)">
       <use xlink:href="#DejaVuSans-32"/>
       <use xlink:href="#DejaVuSans-30" x="63.623047"/>
       <use xlink:href="#DejaVuSans-32" x="127.246094"/>
       <use xlink:href="#DejaVuSans-34" x="190.869141"/>
      </g>
     </g>
    </g>
   </g>
   <g id="matplotlib.axis_8">
    <g id="ytick_10">
     <g id="line2d_38">
      <g>
       <use xlink:href="#m30fed9da17" x="68.070312" y="309.813063" style="stroke: #000000; stroke-width: 0.8"/>
      </g>
     </g>
     <g id="text_19">
      <!-- −10000 -->
      <g transform="translate(20.878125 313.612282) scale(0.1 -0.1)">
       <use xlink:href="#DejaVuSans-2212"/>
       <use xlink:href="#DejaVuSans-31" x="83.789062"/>
       <use xlink:href="#DejaVuSans-30" x="147.412109"/>
       <use xlink:href="#DejaVuSans-30" x="211.035156"/>
       <use xlink:href="#DejaVuSans-30" x="274.658203"/>
       <use xlink:href="#DejaVuSans-30" x="338.28125"/>
      </g>
     </g>
    </g>
    <g id="ytick_11">
     <g id="line2d_39">
      <g>
       <use xlink:href="#m30fed9da17" x="68.070312" y="274.553838" style="stroke: #000000; stroke-width: 0.8"/>
      </g>
     </g>
     <g id="text_20">
      <!-- 0 -->
      <g transform="translate(54.707813 278.353057) scale(0.1 -0.1)">
       <use xlink:href="#DejaVuSans-30"/>
      </g>
     </g>
    </g>
    <g id="text_21">
     <!-- Resid -->
     <g transform="translate(14.798437 295.659375) rotate(-90) scale(0.1 -0.1)">
      <defs>
       <path id="DejaVuSans-52" d="M 2841 2188 
Q 3044 2119 3236 1894 
Q 3428 1669 3622 1275 
L 4263 0 
L 3584 0 
L 2988 1197 
Q 2756 1666 2539 1819 
Q 2322 1972 1947 1972 
L 1259 1972 
L 1259 0 
L 628 0 
L 628 4666 
L 2053 4666 
Q 2853 4666 3247 4331 
Q 3641 3997 3641 3322 
Q 3641 2881 3436 2590 
Q 3231 2300 2841 2188 
z
M 1259 4147 
L 1259 2491 
L 2053 2491 
Q 2509 2491 2742 2702 
Q 2975 2913 2975 3322 
Q 2975 3731 2742 3939 
Q 2509 4147 2053 4147 
L 1259 4147 
z
" transform="scale(0.015625)"/>
       <path id="DejaVuSans-69" d="M 603 3500 
L 1178 3500 
L 1178 0 
L 603 0 
L 603 3500 
z
M 603 4863 
L 1178 4863 
L 1178 4134 
L 603 4134 
L 603 4863 
z
" transform="scale(0.015625)"/>
      </defs>
      <use xlink:href="#DejaVuSans-52"/>
      <use xlink:href="#DejaVuSans-65" x="64.982422"/>
      <use xlink:href="#DejaVuSans-73" x="126.505859"/>
      <use xlink:href="#DejaVuSans-69" x="178.605469"/>
      <use xlink:href="#DejaVuSans-64" x="206.388672"/>
     </g>
    </g>
   </g>
   <g id="line2d_40">
    <defs>
     <path id="mdd3439cdcc" d="M 0 3 
C 0.795609 3 1.55874 2.683901 2.12132 2.12132 
C 2.683901 1.55874 3 0.795609 3 0 
C 3 -0.795609 2.683901 -1.55874 2.12132 -2.12132 
C 1.55874 -2.683901 0.795609 -3 0 -3 
C -0.795609 -3 -1.55874 -2.683901 -2.12132 -2.12132 
C -2.683901 -1.55874 -3 -0.795609 -3 0 
C -3 0.795609 -2.683901 1.55874 -2.12132 2.12132 
C -1.55874 2.683901 -0.795609 3 0 3 
z
" style="stroke: #1f77b4"/>
    </defs>
    <g clip-path="url(#pf9c6e127c7)">
     <use xlink:href="#mdd3439cdcc" x="84.858873" y="274.536777" style="fill: #1f77b4; stroke: #1f77b4"/>
     <use xlink:href="#mdd3439cdcc" x="87.734261" y="273.886268" style="fill: #1f77b4; stroke: #1f77b4"/>
     <use xlink:href="#mdd3439cdcc" x="90.60965" y="273.86835" style="fill: #1f77b4; stroke: #1f77b4"/>
     <use xlink:href="#mdd3439cdcc" x="93.392285" y="275.569825" style="fill: #1f77b4; stroke: #1f77b4"/>
     <use xlink:href="#mdd3439cdcc" x="96.267673" y="275.688258" style="fill: #1f77b4; stroke: #1f77b4"/>
     <use xlink:href="#mdd3439cdcc" x="99.050308" y="275.224733" style="fill: #1f77b4; stroke: #1f77b4"/>
     <use xlink:href="#mdd3439cdcc" x="101.925696" y="276.673056" style="fill: #1f77b4; stroke: #1f77b4"/>
     <use xlink:href="#mdd3439cdcc" x="104.801085" y="277.955589" style="fill: #1f77b4; stroke: #1f77b4"/>
     <use xlink:href="#mdd3439cdcc" x="107.39821" y="277.230736" style="fill: #1f77b4; stroke: #1f77b4"/>
     <use xlink:href="#mdd3439cdcc" x="110.273599" y="271.406913" style="fill: #1f77b4; stroke: #1f77b4"/>
     <use xlink:href="#mdd3439cdcc" x="113.056234" y="272.211395" style="fill: #1f77b4; stroke: #1f77b4"/>
     <use xlink:href="#mdd3439cdcc" x="115.931622" y="273.54898" style="fill: #1f77b4; stroke: #1f77b4"/>
     <use xlink:href="#mdd3439cdcc" x="118.714257" y="273.007981" style="fill: #1f77b4; stroke: #1f77b4"/>
     <use xlink:href="#mdd3439cdcc" x="121.589645" y="273.448564" style="fill: #1f77b4; stroke: #1f77b4"/>
     <use xlink:href="#mdd3439cdcc" x="124.465034" y="273.743017" style="fill: #1f77b4; stroke: #1f77b4"/>
     <use xlink:href="#mdd3439cdcc" x="127.247668" y="274.432546" style="fill: #1f77b4; stroke: #1f77b4"/>
     <use xlink:href="#mdd3439cdcc" x="130.123057" y="275.297062" style="fill: #1f77b4; stroke: #1f77b4"/>
     <use xlink:href="#mdd3439cdcc" x="132.905691" y="274.94681" style="fill: #1f77b4; stroke: #1f77b4"/>
     <use xlink:href="#mdd3439cdcc" x="135.78108" y="276.634741" style="fill: #1f77b4; stroke: #1f77b4"/>
     <use xlink:href="#mdd3439cdcc" x="138.656469" y="277.361916" style="fill: #1f77b4; stroke: #1f77b4"/>
     <use xlink:href="#mdd3439cdcc" x="141.346349" y="278.012455" style="fill: #1f77b4; stroke: #1f77b4"/>
     <use xlink:href="#mdd3439cdcc" x="144.221738" y="270.034964" style="fill: #1f77b4; stroke: #1f77b4"/>
     <use xlink:href="#mdd3439cdcc" x="147.004372" y="271.298643" style="fill: #1f77b4; stroke: #1f77b4"/>
     <use xlink:href="#mdd3439cdcc" x="149.879761" y="273.685657" style="fill: #1f77b4; stroke: #1f77b4"/>
     <use xlink:href="#mdd3439cdcc" x="152.662395" y="273.091245" style="fill: #1f77b4; stroke: #1f77b4"/>
     <use xlink:href="#mdd3439cdcc" x="155.537784" y="273.708135" style="fill: #1f77b4; stroke: #1f77b4"/>
     <use xlink:href="#mdd3439cdcc" x="158.413172" y="273.437994" style="fill: #1f77b4; stroke: #1f77b4"/>
     <use xlink:href="#mdd3439cdcc" x="161.195807" y="274.948819" style="fill: #1f77b4; stroke: #1f77b4"/>
     <use xlink:href="#mdd3439cdcc" x="164.071196" y="275.268479" style="fill: #1f77b4; stroke: #1f77b4"/>
     <use xlink:href="#mdd3439cdcc" x="166.85383" y="275.148668" style="fill: #1f77b4; stroke: #1f77b4"/>
     <use xlink:href="#mdd3439cdcc" x="169.729219" y="277.860872" style="fill: #1f77b4; stroke: #1f77b4"/>
     <use xlink:href="#mdd3439cdcc" x="172.604607" y="278.340603" style="fill: #1f77b4; stroke: #1f77b4"/>
     <use xlink:href="#mdd3439cdcc" x="175.201733" y="277.207402" style="fill: #1f77b4; stroke: #1f77b4"/>
     <use xlink:href="#mdd3439cdcc" x="178.077121" y="271.284452" style="fill: #1f77b4; stroke: #1f77b4"/>
     <use xlink:href="#mdd3439cdcc" x="180.859756" y="271.45774" style="fill: #1f77b4; stroke: #1f77b4"/>
     <use xlink:href="#mdd3439cdcc" x="183.735144" y="272.215012" style="fill: #1f77b4; stroke: #1f77b4"/>
     <use xlink:href="#mdd3439cdcc" x="186.517779" y="273.692702" style="fill: #1f77b4; stroke: #1f77b4"/>
     <use xlink:href="#mdd3439cdcc" x="189.393168" y="274.303566" style="fill: #1f77b4; stroke: #1f77b4"/>
     <use xlink:href="#mdd3439cdcc" x="192.268556" y="273.905287" style="fill: #1f77b4; stroke: #1f77b4"/>
     <use xlink:href="#mdd3439cdcc" x="195.051191" y="275.349432" style="fill: #1f77b4; stroke: #1f77b4"/>
     <use xlink:href="#mdd3439cdcc" x="197.926579" y="275.47765" style="fill: #1f77b4; stroke: #1f77b4"/>
     <use xlink:href="#mdd3439cdcc" x="200.709214" y="274.851607" style="fill: #1f77b4; stroke: #1f77b4"/>
     <use xlink:href="#mdd3439cdcc" x="203.584602" y="276.664599" style="fill: #1f77b4; stroke: #1f77b4"/>
     <use xlink:href="#mdd3439cdcc" x="206.459991" y="276.853865" style="fill: #1f77b4; stroke: #1f77b4"/>
     <use xlink:href="#mdd3439cdcc" x="209.057117" y="276.6873" style="fill: #1f77b4; stroke: #1f77b4"/>
     <use xlink:href="#mdd3439cdcc" x="211.932505" y="271.241097" style="fill: #1f77b4; stroke: #1f77b4"/>
     <use xlink:href="#mdd3439cdcc" x="214.71514" y="272.149806" style="fill: #1f77b4; stroke: #1f77b4"/>
     <use xlink:href="#mdd3439cdcc" x="217.590528" y="272.6578" style="fill: #1f77b4; stroke: #1f77b4"/>
     <use xlink:href="#mdd3439cdcc" x="220.373163" y="274.1894" style="fill: #1f77b4; stroke: #1f77b4"/>
     <use xlink:href="#mdd3439cdcc" x="223.248551" y="273.902211" style="fill: #1f77b4; stroke: #1f77b4"/>
     <use xlink:href="#mdd3439cdcc" x="226.12394" y="274.061877" style="fill: #1f77b4; stroke: #1f77b4"/>
     <use xlink:href="#mdd3439cdcc" x="228.906574" y="274.873865" style="fill: #1f77b4; stroke: #1f77b4"/>
     <use xlink:href="#mdd3439cdcc" x="231.781963" y="275.017654" style="fill: #1f77b4; stroke: #1f77b4"/>
     <use xlink:href="#mdd3439cdcc" x="234.564598" y="274.374853" style="fill: #1f77b4; stroke: #1f77b4"/>
     <use xlink:href="#mdd3439cdcc" x="237.439986" y="276.974884" style="fill: #1f77b4; stroke: #1f77b4"/>
     <use xlink:href="#mdd3439cdcc" x="240.315375" y="277.662098" style="fill: #1f77b4; stroke: #1f77b4"/>
     <use xlink:href="#mdd3439cdcc" x="242.9125" y="277.090999" style="fill: #1f77b4; stroke: #1f77b4"/>
     <use xlink:href="#mdd3439cdcc" x="245.787889" y="271.574371" style="fill: #1f77b4; stroke: #1f77b4"/>
     <use xlink:href="#mdd3439cdcc" x="248.570523" y="272.233997" style="fill: #1f77b4; stroke: #1f77b4"/>
     <use xlink:href="#mdd3439cdcc" x="251.445912" y="272.915866" style="fill: #1f77b4; stroke: #1f77b4"/>
     <use xlink:href="#mdd3439cdcc" x="254.228546" y="274.122641" style="fill: #1f77b4; stroke: #1f77b4"/>
     <use xlink:href="#mdd3439cdcc" x="257.103935" y="273.980667" style="fill: #1f77b4; stroke: #1f77b4"/>
     <use xlink:href="#mdd3439cdcc" x="259.979324" y="274.554891" style="fill: #1f77b4; stroke: #1f77b4"/>
     <use xlink:href="#mdd3439cdcc" x="262.761958" y="272.399407" style="fill: #1f77b4; stroke: #1f77b4"/>
     <use xlink:href="#mdd3439cdcc" x="265.637347" y="265.917809" style="fill: #1f77b4; stroke: #1f77b4"/>
     <use xlink:href="#mdd3439cdcc" x="268.419981" y="261.387213" style="fill: #1f77b4; stroke: #1f77b4"/>
     <use xlink:href="#mdd3439cdcc" x="271.29537" y="257.830348" style="fill: #1f77b4; stroke: #1f77b4"/>
     <use xlink:href="#mdd3439cdcc" x="274.170759" y="253.990625" style="fill: #1f77b4; stroke: #1f77b4"/>
     <use xlink:href="#mdd3439cdcc" x="276.860639" y="255.075272" style="fill: #1f77b4; stroke: #1f77b4"/>
     <use xlink:href="#mdd3439cdcc" x="279.736027" y="310.340625" style="fill: #1f77b4; stroke: #1f77b4"/>
     <use xlink:href="#mdd3439cdcc" x="282.518662" y="303.599393" style="fill: #1f77b4; stroke: #1f77b4"/>
     <use xlink:href="#mdd3439cdcc" x="285.394051" y="288.773519" style="fill: #1f77b4; stroke: #1f77b4"/>
     <use xlink:href="#mdd3439cdcc" x="288.176685" y="284.423095" style="fill: #1f77b4; stroke: #1f77b4"/>
     <use xlink:href="#mdd3439cdcc" x="291.052074" y="279.683696" style="fill: #1f77b4; stroke: #1f77b4"/>
     <use xlink:href="#mdd3439cdcc" x="293.927462" y="273.605955" style="fill: #1f77b4; stroke: #1f77b4"/>
     <use xlink:href="#mdd3439cdcc" x="296.710097" y="269.259663" style="fill: #1f77b4; stroke: #1f77b4"/>
     <use xlink:href="#mdd3439cdcc" x="299.585485" y="270.872943" style="fill: #1f77b4; stroke: #1f77b4"/>
     <use xlink:href="#mdd3439cdcc" x="302.36812" y="275.958343" style="fill: #1f77b4; stroke: #1f77b4"/>
     <use xlink:href="#mdd3439cdcc" x="305.243508" y="282.65922" style="fill: #1f77b4; stroke: #1f77b4"/>
     <use xlink:href="#mdd3439cdcc" x="308.118897" y="280.078479" style="fill: #1f77b4; stroke: #1f77b4"/>
     <use xlink:href="#mdd3439cdcc" x="310.716023" y="279.167942" style="fill: #1f77b4; stroke: #1f77b4"/>
     <use xlink:href="#mdd3439cdcc" x="313.591411" y="271.091458" style="fill: #1f77b4; stroke: #1f77b4"/>
     <use xlink:href="#mdd3439cdcc" x="316.374046" y="271.407247" style="fill: #1f77b4; stroke: #1f77b4"/>
     <use xlink:href="#mdd3439cdcc" x="319.249434" y="273.577304" style="fill: #1f77b4; stroke: #1f77b4"/>
     <use xlink:href="#mdd3439cdcc" x="322.032069" y="271.648275" style="fill: #1f77b4; stroke: #1f77b4"/>
     <use xlink:href="#mdd3439cdcc" x="324.907457" y="272.683688" style="fill: #1f77b4; stroke: #1f77b4"/>
     <use xlink:href="#mdd3439cdcc" x="327.782846" y="275.62883" style="fill: #1f77b4; stroke: #1f77b4"/>
     <use xlink:href="#mdd3439cdcc" x="330.565481" y="272.581325" style="fill: #1f77b4; stroke: #1f77b4"/>
     <use xlink:href="#mdd3439cdcc" x="333.440869" y="273.206904" style="fill: #1f77b4; stroke: #1f77b4"/>
     <use xlink:href="#mdd3439cdcc" x="336.223504" y="273.680305" style="fill: #1f77b4; stroke: #1f77b4"/>
     <use xlink:href="#mdd3439cdcc" x="339.098892" y="277.523386" style="fill: #1f77b4; stroke: #1f77b4"/>
     <use xlink:href="#mdd3439cdcc" x="341.974281" y="275.924072" style="fill: #1f77b4; stroke: #1f77b4"/>
     <use xlink:href="#mdd3439cdcc" x="344.571406" y="275.956297" style="fill: #1f77b4; stroke: #1f77b4"/>
     <use xlink:href="#mdd3439cdcc" x="347.446795" y="269.625074" style="fill: #1f77b4; stroke: #1f77b4"/>
     <use xlink:href="#mdd3439cdcc" x="350.229429" y="270.861149" style="fill: #1f77b4; stroke: #1f77b4"/>
     <use xlink:href="#mdd3439cdcc" x="353.104818" y="272.39762" style="fill: #1f77b4; stroke: #1f77b4"/>
     <use xlink:href="#mdd3439cdcc" x="355.887453" y="272.197325" style="fill: #1f77b4; stroke: #1f77b4"/>
     <use xlink:href="#mdd3439cdcc" x="358.762841" y="272.624127" style="fill: #1f77b4; stroke: #1f77b4"/>
     <use xlink:href="#mdd3439cdcc" x="361.63823" y="272.83261" style="fill: #1f77b4; stroke: #1f77b4"/>
     <use xlink:href="#mdd3439cdcc" x="364.420864" y="274.361539" style="fill: #1f77b4; stroke: #1f77b4"/>
     <use xlink:href="#mdd3439cdcc" x="367.296253" y="274.637666" style="fill: #1f77b4; stroke: #1f77b4"/>
     <use xlink:href="#mdd3439cdcc" x="370.078887" y="274.739753" style="fill: #1f77b4; stroke: #1f77b4"/>
     <use xlink:href="#mdd3439cdcc" x="372.954276" y="277.912979" style="fill: #1f77b4; stroke: #1f77b4"/>
     <use xlink:href="#mdd3439cdcc" x="375.829665" y="277.921016" style="fill: #1f77b4; stroke: #1f77b4"/>
     <use xlink:href="#mdd3439cdcc" x="378.42679" y="278.113573" style="fill: #1f77b4; stroke: #1f77b4"/>
     <use xlink:href="#mdd3439cdcc" x="381.302179" y="271.921399" style="fill: #1f77b4; stroke: #1f77b4"/>
     <use xlink:href="#mdd3439cdcc" x="384.084813" y="271.218752" style="fill: #1f77b4; stroke: #1f77b4"/>
     <use xlink:href="#mdd3439cdcc" x="386.960202" y="272.418217" style="fill: #1f77b4; stroke: #1f77b4"/>
     <use xlink:href="#mdd3439cdcc" x="389.742836" y="274.99238" style="fill: #1f77b4; stroke: #1f77b4"/>
     <use xlink:href="#mdd3439cdcc" x="392.618225" y="276.983742" style="fill: #1f77b4; stroke: #1f77b4"/>
     <use xlink:href="#mdd3439cdcc" x="395.493614" y="278.32188" style="fill: #1f77b4; stroke: #1f77b4"/>
     <use xlink:href="#mdd3439cdcc" x="398.276248" y="281.643804" style="fill: #1f77b4; stroke: #1f77b4"/>
     <use xlink:href="#mdd3439cdcc" x="401.151637" y="284.0358" style="fill: #1f77b4; stroke: #1f77b4"/>
     <use xlink:href="#mdd3439cdcc" x="403.934271" y="285.10794" style="fill: #1f77b4; stroke: #1f77b4"/>
     <use xlink:href="#mdd3439cdcc" x="406.80966" y="264.686139" style="fill: #1f77b4; stroke: #1f77b4"/>
     <use xlink:href="#mdd3439cdcc" x="409.685049" y="269.331962" style="fill: #1f77b4; stroke: #1f77b4"/>
     <use xlink:href="#mdd3439cdcc" x="412.374929" y="270.878248" style="fill: #1f77b4; stroke: #1f77b4"/>
     <use xlink:href="#mdd3439cdcc" x="415.250317" y="266.899872" style="fill: #1f77b4; stroke: #1f77b4"/>
     <use xlink:href="#mdd3439cdcc" x="418.032952" y="268.982104" style="fill: #1f77b4; stroke: #1f77b4"/>
     <use xlink:href="#mdd3439cdcc" x="420.90834" y="273.230251" style="fill: #1f77b4; stroke: #1f77b4"/>
     <use xlink:href="#mdd3439cdcc" x="423.690975" y="274.060427" style="fill: #1f77b4; stroke: #1f77b4"/>
     <use xlink:href="#mdd3439cdcc" x="426.566364" y="274.757583" style="fill: #1f77b4; stroke: #1f77b4"/>
     <use xlink:href="#mdd3439cdcc" x="429.441752" y="276.001556" style="fill: #1f77b4; stroke: #1f77b4"/>
    </g>
   </g>
   <g id="patch_18">
    <path d="M 68.070312 313.158125 
L 68.070312 251.173125 
" style="fill: none; stroke: #000000; stroke-width: 0.8; stroke-linejoin: miter; stroke-linecap: square"/>
   </g>
   <g id="patch_19">
    <path d="M 446.230313 313.158125 
L 446.230313 251.173125 
" style="fill: none; stroke: #000000; stroke-width: 0.8; stroke-linejoin: miter; stroke-linecap: square"/>
   </g>
   <g id="patch_20">
    <path d="M 68.070312 313.158125 
L 446.230313 313.158125 
" style="fill: none; stroke: #000000; stroke-width: 0.8; stroke-linejoin: miter; stroke-linecap: square"/>
   </g>
   <g id="patch_21">
    <path d="M 68.070312 251.173125 
L 446.230313 251.173125 
" style="fill: none; stroke: #000000; stroke-width: 0.8; stroke-linejoin: miter; stroke-linecap: square"/>
   </g>
  </g>
 </g>
 <defs>
  <clipPath id="p6d20ad33a6">
   <rect x="68.070312" y="22.318125" width="378.16" height="61.985"/>
  </clipPath>
  <clipPath id="pb9c81d0a44">
   <rect x="68.070312" y="98.603125" width="378.16" height="61.985"/>
  </clipPath>
  <clipPath id="pe1ae20c19b">
   <rect x="68.070312" y="174.888125" width="378.16" height="61.985"/>
  </clipPath>
  <clipPath id="pf9c6e127c7">
   <rect x="68.070312" y="251.173125" width="378.16" height="61.985"/>
  </clipPath>
 </defs>
</svg>
